<?xml version="1.0" encoding="utf-8"?>
<!-- Generator: Adobe Illustrator 28.2.0, SVG Export Plug-In . SVG Version: 6.00 Build 0)  -->
<svg version="1.1" id="Layer_1" xmlns="http://www.w3.org/2000/svg" xmlns:xlink="http://www.w3.org/1999/xlink" x="0px" y="0px"
	 viewBox="0 0 22.64 25.72" style="enable-background:new 0 0 22.64 25.72;" xml:space="preserve">
<style type="text/css">
	.st0{fill:#1C6980;}
</style>
<g id="XMLID_00000027588023420629015130000006046133116325353915_">
	<path id="XMLID_00000070100576990833876990000017514988249831936399_" class="st0" d="M13.78,15.77l8.03,4.17
		c0.23,0.12,0.51,0.07,0.69-0.13c0.17-0.19,0.19-0.48,0.04-0.7l-1.88-2.73c0.05-0.06,0.09-0.13,0.13-0.19l0.4-0.77
		c0.15-0.28,0.17-0.6,0.08-0.9c-0.1-0.3-0.3-0.55-0.58-0.69c-0.28-0.15-0.6-0.17-0.9-0.08c-0.25,0.08-0.47,0.24-0.61,0.46
		l-0.84-1.22l0.33-0.63c0.15-0.28,0.17-0.6,0.08-0.9c-0.1-0.3-0.3-0.55-0.58-0.69c-0.28-0.15-0.6-0.17-0.9-0.08
		c-0.14,0.04-0.26,0.11-0.37,0.2l-0.25-0.36c2.17-4.49,3.59-9.58,2-10.41c-1.6-0.83-5.19,3.22-7.64,7.6l-0.62,0.01
		c0.02-0.17,0.01-0.34-0.04-0.51c-0.1-0.3-0.3-0.55-0.58-0.69c-0.28-0.15-0.6-0.17-0.9-0.08c-0.3,0.1-0.55,0.3-0.69,0.58L7.77,7.74
		L6.31,7.76C6.57,7.19,6.35,6.5,5.78,6.2c-0.28-0.15-0.6-0.17-0.9-0.08c-0.3,0.1-0.55,0.3-0.69,0.58l-0.4,0.77
		c-0.05,0.1-0.08,0.2-0.1,0.31L0.56,7.82C0.3,7.82,0.08,8,0.02,8.25C-0.04,8.5,0.07,8.77,0.31,8.89l8.03,4.17
		c-0.73,1.77-1.01,3.48-1.25,4.88c-0.08,0.48-0.16,0.93-0.24,1.34l-4.2,1.33c-0.27,0.09-0.44,0.36-0.39,0.64
		c0.05,0.28,0.3,0.48,0.59,0.47c0.04,0,4.02-0.16,7.23,3.79c0.11,0.14,0.27,0.21,0.44,0.21c0.09,0,0.18-0.02,0.27-0.07
		c0.24-0.13,0.35-0.41,0.27-0.67l-1.33-4.19c0.15-0.16,0.3-0.33,0.46-0.51C11.22,19.15,12.61,17.65,13.78,15.77z M5.32,20.95
		l2.18-0.69c0.19-0.06,0.33-0.22,0.38-0.41C8,19.33,8.1,18.74,8.2,18.12c0.26-1.53,0.55-3.27,1.37-5.09
		c0.12-0.27,0.01-0.6-0.25-0.74L2.84,8.93l1.22-0.01c0.07,0.06,0.15,0.12,0.23,0.16c0.17,0.09,0.36,0.13,0.54,0.13
		c0.12,0,0.24-0.02,0.36-0.06C5.36,9.1,5.51,9.01,5.63,8.9l2.12-0.02c0.11,0.21,0.28,0.39,0.5,0.51C8.42,9.47,8.61,9.52,8.8,9.52
		c0.12,0,0.24-0.02,0.36-0.06c0.3-0.1,0.55-0.3,0.69-0.58l0.01-0.03l1.47-0.02c0.2,0,0.39-0.12,0.49-0.3
		c2.69-4.92,5.54-7.36,6.28-7.41c0.3,0.56-0.02,3.9-2.63,9.19c-0.09,0.18-0.08,0.4,0.04,0.57l0.71,1.03l-0.06,0.12
		c-0.15,0.28-0.17,0.6-0.08,0.9c0.1,0.3,0.3,0.55,0.58,0.69c0.17,0.09,0.36,0.13,0.54,0.13c0.09,0,0.18-0.01,0.26-0.03l1.12,1.63
		c-0.05,0.21-0.05,0.42,0.02,0.63c0.1,0.3,0.3,0.55,0.58,0.69c0.12,0.06,0.26,0.11,0.39,0.12l0.74,1.07l-6.48-3.37
		c-0.27-0.14-0.6-0.04-0.75,0.22c-1.17,1.99-2.59,3.54-3.73,4.78c-0.25,0.27-0.48,0.52-0.69,0.76c-0.13,0.15-0.18,0.36-0.12,0.55
		l0.71,2.25C7.87,21.9,6.46,21.28,5.32,20.95z M4.59,7.89l0.4-0.77c0.05-0.1,0.15-0.15,0.25-0.15c0.04,0,0.09,0.01,0.13,0.03
		C5.5,7.08,5.56,7.25,5.48,7.38l-0.4,0.77l0,0C5.05,8.22,4.99,8.27,4.92,8.29C4.85,8.31,4.78,8.3,4.71,8.27
		C4.64,8.24,4.6,8.18,4.57,8.11C4.55,8.04,4.56,7.96,4.59,7.89z M8.95,7.44C9,7.34,9.1,7.29,9.2,7.29c0.04,0,0.09,0.01,0.13,0.03
		c0.07,0.03,0.11,0.09,0.14,0.16c0.02,0.07,0.02,0.15-0.02,0.21l-0.4,0.77C9.01,8.53,8.95,8.58,8.88,8.6
		C8.81,8.62,8.74,8.61,8.67,8.58C8.54,8.51,8.48,8.34,8.55,8.2L8.95,7.44z M17.52,11.55c0.03-0.01,0.06-0.01,0.08-0.01
		c0.04,0,0.09,0.01,0.13,0.03c0.07,0.03,0.11,0.09,0.14,0.16c0.02,0.07,0.02,0.15-0.02,0.21l-0.4,0.77
		c-0.07,0.14-0.24,0.19-0.38,0.12c-0.14-0.07-0.19-0.24-0.12-0.38l0,0l0.4-0.77C17.39,11.62,17.45,11.57,17.52,11.55z M19.49,15.52
		l0.4-0.77c0.03-0.07,0.09-0.11,0.16-0.14c0.07-0.02,0.15-0.02,0.21,0.02c0.07,0.03,0.12,0.09,0.14,0.16
		c0.02,0.07,0.02,0.15-0.02,0.21l-0.4,0.77c-0.03,0.07-0.09,0.11-0.16,0.14c-0.07,0.02-0.15,0.02-0.21-0.02
		c-0.07-0.03-0.11-0.09-0.14-0.16C19.45,15.66,19.46,15.58,19.49,15.52z"/>
</g>
</svg>
