<?xml version="1.0" encoding="utf-8"?>
<!-- Generator: Adobe Illustrator 28.2.0, SVG Export Plug-In . SVG Version: 6.00 Build 0)  -->
<svg version="1.1" id="Layer_1" xmlns="http://www.w3.org/2000/svg" xmlns:xlink="http://www.w3.org/1999/xlink" x="0px" y="0px"
	 viewBox="0 0 25.57 21.45" style="enable-background:new 0 0 25.57 21.45;" xml:space="preserve">
<style type="text/css">
	.st0{fill:#1C6980;}
</style>
<g id="XMLID_00000116952772501655768920000003283890907811141029_">
	<path id="XMLID_00000120555142776779478300000012433333168580038074_" class="st0" d="M13.72,13.5v1.76
		c0.06-0.03,0.13-0.06,0.19-0.1c0.33-0.2,0.5-0.49,0.5-0.85C14.42,13.91,14.18,13.65,13.72,13.5z"/>
	<path id="XMLID_00000116926804667852994790000017466319034015841153_" class="st0" d="M23.11,3.95h-3.76V3.14
		c0-1.73-1.41-3.14-3.14-3.14H9.36C7.63,0,6.22,1.41,6.22,3.14v0.82H2.46C1.11,3.95,0,5.06,0,6.42v12.57c0,1.36,1.11,2.46,2.46,2.46
		h20.64c1.36,0,2.46-1.11,2.46-2.46V6.42C25.57,5.06,24.47,3.95,23.11,3.95z M24.68,18.98c0,0.87-0.71,1.57-1.57,1.57H2.46
		c-0.87,0-1.57-0.71-1.57-1.57V6.42c0-0.87,0.71-1.57,1.57-1.57h4.2c0.25,0,0.44-0.2,0.44-0.44V3.14c0-1.24,1.01-2.25,2.25-2.25
		h6.86c1.24,0,2.25,1.01,2.25,2.25V4.4c0,0.25,0.2,0.44,0.45,0.44h4.2c0.87,0,1.57,0.71,1.57,1.57V18.98z"/>
	<path id="XMLID_00000164503295383102888850000000786231660551619223_" class="st0" d="M16.21,2.02H9.36c-0.62,0-1.12,0.5-1.12,1.12
		V4.4c0,0.25,0.2,0.44,0.44,0.44h1.7c0.01,0,0.02,0,0.02,0h0.34c0.01,0,0.02,0,0.02,0h0.55c0.01,0,0.02,0,0.02,0h2.88
		c0.01,0,0.02,0,0.02,0h0.55c0.01,0,0.02,0,0.02,0h0.34c0.01,0,0.02,0,0.02,0h1.7c0.25,0,0.44-0.2,0.44-0.44V3.14
		C17.33,2.52,16.83,2.02,16.21,2.02z M16.44,3.95h-1.28c-0.01,0-0.02,0-0.02,0h-0.29c-0.01,0-0.02,0-0.02,0h-0.59
		c-0.01,0-0.02,0-0.02,0h-2.84c-0.01,0-0.02,0-0.02,0h-0.59c-0.01,0-0.02,0-0.02,0h-0.29c-0.01,0-0.02,0-0.02,0H9.13V3.14
		c0-0.13,0.1-0.23,0.23-0.23h6.86c0.12,0,0.23,0.1,0.23,0.23V3.95z"/>
	<path id="XMLID_00000078010690390462058800000015406519184760997542_" class="st0" d="M14.17,11.25v-0.4
		C14.33,10.95,14.51,11,14.7,11h0c0.21,0,0.43-0.1,0.49-0.13c0.01,0,0.01-0.01,0.02-0.01c0.01,0,0.01-0.01,0.02-0.01l0.96-0.6
		c0.26-0.16,0.4-0.41,0.41-0.69c0-0.22-0.08-0.43-0.25-0.59c-0.58-0.65-1.31-1.09-2.18-1.31V7.11c0-0.5-0.41-0.91-0.91-0.91H12.4
		c-0.5,0-0.91,0.41-0.91,0.91v0.51c-0.34,0.07-0.65,0.17-0.94,0.3c-1.64,0.75-1.97,1.91-1.95,2.76c0.01,0.6,0.2,1.15,0.55,1.61
		c0.51,0.68,1.29,1.14,2.34,1.37v0.91c-0.2-0.14-0.4-0.31-0.59-0.52c-0.18-0.22-0.43-0.34-0.71-0.34h0c-0.15,0-0.32,0.06-0.43,0.11
		c-0.01,0-0.01,0.01-0.02,0.01c-0.01,0.01-0.02,0.01-0.03,0.02l-0.87,0.51c-0.29,0.17-0.45,0.43-0.44,0.73
		c0,0.19,0.07,0.37,0.2,0.52c0.25,0.35,0.58,0.68,0.99,0.98c0.57,0.44,1.21,0.74,1.91,0.9v0.42c0,0.5,0.41,0.91,0.91,0.91h0.85
		c0.5,0,0.91-0.41,0.91-0.91v-0.42c0.59-0.13,1.12-0.34,1.58-0.65c0,0,0,0,0,0c0.92-0.61,1.4-1.46,1.42-2.54
		c0.01-0.68-0.18-1.28-0.58-1.76C16.04,11.9,15.23,11.46,14.17,11.25z M15.26,16.11c-0.44,0.29-0.98,0.49-1.6,0.58
		c-0.22,0.03-0.38,0.22-0.38,0.44v0.79c0,0.01-0.01,0.02-0.02,0.02H12.4c-0.01,0-0.02-0.01-0.02-0.02v-0.79
		c0-0.22-0.16-0.4-0.37-0.44c-0.7-0.11-1.33-0.38-1.88-0.81c-0.33-0.25-0.6-0.51-0.8-0.78l0.8-0.47c0.02-0.01,0.05-0.02,0.07-0.02
		c0.01,0,0.01,0,0.01,0c0.01,0.01,0.02,0.02,0.03,0.03c0.48,0.52,1,0.88,1.55,1.07c0.14,0.05,0.29,0.03,0.4-0.06
		c0.12-0.08,0.19-0.22,0.19-0.36v-2c0-0.22-0.16-0.41-0.38-0.44c-1-0.15-1.71-0.52-2.14-1.09c-0.24-0.32-0.36-0.68-0.37-1.09
		c-0.02-0.85,0.45-1.48,1.43-1.93c0.31-0.14,0.67-0.24,1.07-0.3c0.22-0.03,0.38-0.22,0.38-0.44V7.11c0-0.01,0.01-0.02,0.02-0.02
		h0.85c0.01,0,0.02,0.01,0.02,0.02v0.9c0,0.22,0.16,0.4,0.37,0.44c0.82,0.14,1.48,0.49,2.01,1.07l-0.87,0.55
		c-0.03,0.01-0.07,0.03-0.08,0.03c-0.05,0-0.08-0.01-0.11-0.04c-0.21-0.18-0.44-0.33-0.68-0.45c-0.14-0.06-0.3-0.06-0.43,0.03
		c-0.13,0.08-0.21,0.22-0.21,0.38v1.61c0,0.22,0.16,0.41,0.38,0.44c1.02,0.14,1.78,0.5,2.24,1.05c0.26,0.32,0.39,0.71,0.38,1.18
		C16.27,15.07,15.93,15.66,15.26,16.11z"/>
	<path id="XMLID_00000012455232954719233900000011183837755816136358_" class="st0" d="M11.38,10.68c0,0.34,0.19,0.58,0.56,0.73
		V9.98c-0.02,0.01-0.04,0.02-0.07,0.03C11.54,10.17,11.37,10.39,11.38,10.68z"/>
</g>
</svg>
