<?xml version="1.0" encoding="utf-8"?>
<!-- Generator: Adobe Illustrator 28.2.0, SVG Export Plug-In . SVG Version: 6.00 Build 0)  -->
<svg version="1.1" id="Layer_1" xmlns="http://www.w3.org/2000/svg" xmlns:xlink="http://www.w3.org/1999/xlink" x="0px" y="0px"
	 viewBox="0 0 22.93 24.49" style="enable-background:new 0 0 22.93 24.49;" xml:space="preserve">
<style type="text/css">
	.st0{fill:#1C6980;}
</style>
<g id="XMLID_00000052816450806132560110000004617993109076088723_">
	<path id="XMLID_00000067225518223954180640000001560225793251032454_" class="st0" d="M2.96,5.58L2.71,5.8
		C2.7,5.8,2.7,5.81,2.69,5.81l-0.59,0.5l0.04,0.02c-1.2,1.24-1.94,2.73-2.11,4.26h0C0.01,10.88,0,11.13,0,11.37
		c0,0.1,0.01,0.19,0.02,0.31l0,0.05c0,0.05,0.01,0.11,0.01,0.16c0.01,0.13,0.03,0.26,0.06,0.38c0.01,0.06,0.02,0.13,0.04,0.2
		c0.03,0.14,0.06,0.28,0.1,0.4l0.01,0.03c0.16,0.56,0.38,1.15,0.7,1.8c0.2,0.41,0.43,0.85,0.71,1.35l0.32,0.57
		c0.93,1.66,1.98,3.55,3.34,5.5l0.04,0.05c1.07,1.22,2.41,2.44,4.12,2.33c0.68-0.05,1.36-0.29,2.02-0.72
		c0.66,0.43,1.34,0.68,2.02,0.72c0.08,0.01,0.16,0.01,0.25,0.01c1.34,0,2.68-0.75,3.99-2.23l0.03-0.03
		c1.17-1.56,1.98-3.15,2.69-4.55c0.29-0.58,0.57-1.13,0.86-1.63c0.28-0.51,0.52-0.95,0.71-1.35c0.31-0.65,0.54-1.24,0.7-1.8l0-0.02
		c0.04-0.14,0.07-0.28,0.1-0.41c0.01-0.07,0.03-0.13,0.04-0.2c0.02-0.13,0.04-0.25,0.05-0.38c0.01-0.05,0.01-0.11,0.01-0.16
		l0.01-0.07c0.01-0.1,0.01-0.19,0.01-0.29c0.01-0.25-0.01-0.5-0.04-0.78c-0.17-1.54-0.91-3.03-2.11-4.27l0.04-0.02l-0.59-0.5
		c0,0,0,0,0,0l-0.26-0.22l-0.02,0.01c-0.95-0.7-2.13-1.1-3.36-1.13l-0.04,0c-0.04,0-0.08,0-0.11,0c-0.8,0-1.57,0.15-2.3,0.45
		c-0.26,0.11-0.51,0.23-0.74,0.37c0.39-1.09,0.99-2.1,1.74-2.97c0.1-0.11,0.2-0.22,0.3-0.33l0.32-0.34l-0.3-0.36
		c-0.27-0.32-0.51-0.6-0.74-0.86L14.35,0l-0.39,0.4c-0.67,0.69-1.25,1.46-1.74,2.31c0,0,0,0,0,0c-0.78-1.33-2.23-2.15-3.78-2.13
		l-0.3,0L7.98,0.84C7.34,1.99,7.25,3.38,7.73,4.58C7.33,4.5,6.91,4.45,6.49,4.45c-0.04,0-0.07,0-0.11,0l-0.04,0
		C5.1,4.49,3.92,4.89,2.97,5.59L2.96,5.58z M14.32,1.55c0.01,0.02,0.03,0.03,0.04,0.05c-0.01,0.01-0.01,0.02-0.02,0.02
		c-0.65,0.75-1.18,1.58-1.6,2.48c-0.01-0.03-0.01-0.07-0.02-0.1C13.14,3.11,13.68,2.29,14.32,1.55z M8.76,1.63
		c1.06,0.09,2.02,0.69,2.56,1.61c0.15,0.26,0.27,0.54,0.35,0.84c0.16,0.62,0.14,1.29-0.08,1.9c-0.03,0-0.06,0.01-0.09,0.01
		c-0.01,0-0.02,0-0.03,0c-0.28-0.01-0.56-0.09-0.83-0.2c-0.17-0.07-0.33-0.14-0.5-0.22c-0.08-0.03-0.16-0.07-0.23-0.1
		C9.85,5.46,9.81,5.44,9.77,5.42c-0.08-0.05-0.16-0.1-0.25-0.15C9.49,5.26,9.46,5.24,9.44,5.22C9.39,5.2,9.34,5.17,9.29,5.15
		C9.14,4.98,9.02,4.81,8.93,4.65C8.38,3.73,8.33,2.6,8.76,1.63z M3.54,6.48c0,0,0,0,0.01-0.01c0.78-0.6,1.77-0.94,2.81-0.96
		c0.03,0,0.05,0,0.08,0c0.02,0,0.03,0,0.05,0c0.66,0,1.3,0.13,1.91,0.38c0.12,0.05,0.23,0.1,0.34,0.16c0.19,0.1,0.36,0.19,0.49,0.29
		l0.09,0.05C9.45,6.42,9.57,6.48,9.7,6.53c0.51,0.23,1.08,0.48,1.75,0.51l0.02,0l0.02,0c0.12,0,0.24-0.02,0.36-0.04l-0.03,0.11
		l0.93-0.37c0.16-0.06,0.32-0.13,0.47-0.2c0.13-0.06,0.26-0.12,0.39-0.17l0.09-0.05c0.26-0.17,0.54-0.32,0.83-0.44
		c0.61-0.25,1.25-0.38,1.9-0.38c0.02,0,0.03,0,0.05,0c0.03,0,0.05,0,0.08,0c1.04,0.03,2.03,0.37,2.81,0.96
		c0,0.01,0.01,0.01,0.01,0.01c0,0,0.1,0.19,0.31,0.26c1.23,1.13,1.99,2.54,2.15,3.98c0.03,0.23,0.04,0.44,0.03,0.64
		c0,0.08-0.01,0.16-0.01,0.25l0,0.05c0,0.04-0.01,0.08-0.01,0.12c-0.01,0.1-0.03,0.21-0.05,0.31c-0.01,0.05-0.02,0.1-0.03,0.16
		c-0.02,0.12-0.05,0.23-0.09,0.36c-0.14,0.5-0.34,1.03-0.63,1.62c-0.18,0.38-0.4,0.8-0.68,1.29c-0.29,0.52-0.58,1.08-0.88,1.67
		c-0.69,1.36-1.47,2.9-2.58,4.38c-1.16,1.3-2.29,1.93-3.37,1.85c-0.58-0.04-1.18-0.29-1.78-0.74l-0.31-0.24l-0.31,0.24
		c-0.6,0.45-1.2,0.7-1.78,0.74c-1,0.07-1.97-0.52-3.24-1.95c-1.32-1.89-2.35-3.75-3.26-5.38l-0.32-0.57
		c-0.27-0.48-0.49-0.9-0.68-1.29c-0.28-0.59-0.49-1.12-0.63-1.61L1.24,12.6c-0.03-0.12-0.06-0.24-0.08-0.35
		c-0.01-0.05-0.02-0.11-0.03-0.17c-0.02-0.1-0.03-0.21-0.05-0.31c0-0.04-0.01-0.08-0.01-0.12l-0.01-0.08
		c-0.01-0.08-0.01-0.16-0.01-0.23c0-0.2,0.01-0.41,0.03-0.64C1.24,9.27,2,7.87,3.23,6.74C3.44,6.67,3.54,6.48,3.54,6.48z"/>
</g>
</svg>
