<?xml version="1.0" encoding="utf-8"?>
<!-- Generator: Adobe Illustrator 28.2.0, SVG Export Plug-In . SVG Version: 6.00 Build 0)  -->
<svg version="1.1" id="Layer_1" xmlns="http://www.w3.org/2000/svg" xmlns:xlink="http://www.w3.org/1999/xlink" x="0px" y="0px"
	 viewBox="0 0 23.65 25.28" style="enable-background:new 0 0 23.65 25.28;" xml:space="preserve">
<style type="text/css">
	.st0{fill:#1C6980;}
</style>
<g id="XMLID_10837_">
	<path id="XMLID_10838_" class="st0" d="M21.95,14.14c-1.44-1.24-3.59-1.77-6.38-1.57c1.82-1.24,3.01-3.33,3.01-5.69
		C18.58,3.09,15.49,0,11.7,0C7.91,0,4.82,3.09,4.82,6.88c0,2.24,1.08,4.24,2.75,5.5c-2.01-0.2-6.26-0.05-7.55,4.42
		C0.01,16.84,0,16.89,0,16.94v7.81c0,0.29,0.23,0.52,0.52,0.52h22.61c0.29,0,0.52-0.23,0.52-0.52v-7.44c0-0.01,0-0.02,0-0.03
		C23.65,17.21,23.53,15.5,21.95,14.14z M5.8,6.88c0-3.25,2.65-5.9,5.9-5.9c3.25,0,5.9,2.65,5.9,5.9c0,3.24-2.63,5.88-5.87,5.9h-0.06
		C8.43,12.76,5.8,10.12,5.8,6.88z M11.6,14.87h0.5l0.75,1.54l-1.02,1.98l-0.76-1.5L11.6,14.87z M10.98,13.83
		c0-0.19,0.16-0.35,0.35-0.35h0.99c0.19,0,0.35,0.16,0.35,0.35c0,0.19-0.16,0.35-0.35,0.35h-0.99
		C11.14,14.18,10.98,14.02,10.98,13.83z M12.81,14.74c0.33-0.18,0.55-0.52,0.55-0.92c0-0.09-0.02-0.18-0.04-0.26
		c0.41-0.1,0.81-0.24,1.2-0.41l-1.28,2.49L12.81,14.74z M10.9,14.78l-0.31,1.19L9.24,13.3c0.34,0.13,0.7,0.24,1.07,0.31
		c-0.01,0.07-0.02,0.14-0.02,0.21C10.28,14.25,10.54,14.62,10.9,14.78z M22.61,24.23H1.05v-7.22c1.31-4.36,6.02-3.72,7.12-3.51
		l3.19,6.27c0.09,0.18,0.27,0.29,0.46,0.29h0c0.2,0,0.37-0.11,0.46-0.28l3.17-6.16c2.58-0.21,4.53,0.23,5.79,1.29
		c1.21,1.02,1.35,2.28,1.36,2.42V24.23z"/>
</g>
</svg>
