<?xml version="1.0" encoding="utf-8"?>
<!-- Generator: Adobe Illustrator 28.2.0, SVG Export Plug-In . SVG Version: 6.00 Build 0)  -->
<svg version="1.1" id="Layer_1" xmlns="http://www.w3.org/2000/svg" xmlns:xlink="http://www.w3.org/1999/xlink" x="0px" y="0px"
	 viewBox="0 0 22.28 24.97" style="enable-background:new 0 0 22.28 24.97;" xml:space="preserve">
<style type="text/css">
	.st0{fill:#1C6980;}
</style>
<g id="XMLID_00000058575951901744701950000005658067150615622560_">
	<path id="XMLID_00000013168275937269248910000006043229482573672892_" class="st0" d="M8,5.56c0.55,0,0.99-0.45,0.99-0.99V0.99
		C8.99,0.45,8.55,0,8,0C7.45,0,7.01,0.45,7.01,0.99v3.57C7.01,5.11,7.45,5.56,8,5.56z M7.6,0.99c0-0.22,0.18-0.4,0.4-0.4
		c0.22,0,0.4,0.18,0.4,0.4v3.57c0,0.22-0.18,0.4-0.4,0.4c-0.22,0-0.4-0.18-0.4-0.4V0.99z"/>
	<path id="XMLID_00000059276834857161049110000001843670442447270064_" class="st0" d="M7.01,15.01C7.01,15.56,7.45,16,8,16
		c0.55,0,0.99-0.45,0.99-0.99v-3.57c0-0.55-0.45-0.99-0.99-0.99c-0.55,0-0.99,0.45-0.99,0.99V15.01z M7.6,11.44
		c0-0.22,0.18-0.4,0.4-0.4c0.22,0,0.4,0.18,0.4,0.4v3.57c0,0.22-0.18,0.4-0.4,0.4c-0.22,0-0.4-0.18-0.4-0.4V11.44z"/>
	<path id="XMLID_00000051344071801961731580000009561068768910204838_" class="st0" d="M12.96,2.05c-0.26,0-0.51,0.1-0.7,0.29
		L9.73,4.87c-0.19,0.19-0.29,0.44-0.29,0.7s0.1,0.51,0.29,0.7c0.19,0.19,0.44,0.29,0.7,0.29c0.27,0,0.51-0.1,0.7-0.29l2.53-2.53
		c0.19-0.19,0.29-0.44,0.29-0.7c0-0.27-0.1-0.51-0.29-0.7C13.47,2.16,13.22,2.05,12.96,2.05z M10.15,5.85
		c-0.07-0.08-0.12-0.17-0.12-0.28s0.04-0.21,0.12-0.28l2.53-2.53c0.07-0.07,0.17-0.12,0.28-0.12s0.21,0.04,0.28,0.12
		c0.07,0.07,0.12,0.17,0.12,0.28c0,0.11-0.04,0.21-0.12,0.28l-2.53,2.53C10.56,6,10.3,6,10.15,5.85z"/>
	<path id="XMLID_00000005984495470864611760000017077662907251077030_" class="st0" d="M6.57,10.43c0-0.27-0.1-0.51-0.29-0.7
		c-0.39-0.39-1.02-0.39-1.4,0l-2.53,2.53c-0.19,0.19-0.29,0.44-0.29,0.7c0,0.27,0.1,0.51,0.29,0.7c0.19,0.19,0.44,0.29,0.7,0.29
		c0.26,0,0.51-0.1,0.7-0.29l2.53-2.53C6.46,10.95,6.57,10.7,6.57,10.43z M5.85,10.71l-2.53,2.53c-0.15,0.15-0.41,0.15-0.56,0
		c-0.08-0.08-0.12-0.17-0.12-0.28c0-0.11,0.04-0.21,0.12-0.28l2.53-2.53c0.08-0.08,0.18-0.12,0.28-0.12c0.1,0,0.2,0.04,0.28,0.12
		c0.07,0.07,0.12,0.17,0.12,0.28C5.97,10.54,5.93,10.64,5.85,10.71z"/>
	<path id="XMLID_00000137090193323695913010000015527179128989358256_" class="st0" d="M10.44,8c0,0.55,0.45,0.99,0.99,0.99h3.57
		C15.56,8.99,16,8.55,16,8c0-0.55-0.44-0.99-0.99-0.99h-3.57C10.89,7.01,10.44,7.45,10.44,8z M15.41,8c0,0.22-0.18,0.4-0.4,0.4
		h-3.57c-0.22,0-0.4-0.18-0.4-0.4c0-0.22,0.18-0.4,0.4-0.4h3.57C15.23,7.6,15.41,7.78,15.41,8z"/>
	<path id="XMLID_00000150790357591589060630000004287085992423576724_" class="st0" d="M0.99,8.99h3.57c0.55,0,0.99-0.45,0.99-0.99
		c0-0.55-0.45-0.99-0.99-0.99H0.99C0.45,7.01,0,7.45,0,8C0,8.55,0.45,8.99,0.99,8.99z M0.99,7.6h3.57c0.22,0,0.4,0.18,0.4,0.4
		c0,0.22-0.18,0.4-0.4,0.4H0.99C0.77,8.4,0.6,8.22,0.6,8C0.6,7.78,0.77,7.6,0.99,7.6z"/>
	<path id="XMLID_00000090294355362959687770000015061118658454451378_" class="st0" d="M4.87,6.27c0.19,0.19,0.44,0.29,0.7,0.29
		c0.27,0,0.51-0.1,0.7-0.29c0.19-0.19,0.29-0.44,0.29-0.7s-0.1-0.51-0.29-0.7L3.75,2.34c-0.39-0.39-1.02-0.39-1.4,0
		c-0.19,0.19-0.29,0.44-0.29,0.7c0,0.26,0.1,0.51,0.29,0.7L4.87,6.27z M2.77,2.76c0.08-0.08,0.18-0.12,0.28-0.12
		c0.1,0,0.2,0.04,0.28,0.12l2.53,2.53c0.07,0.08,0.12,0.17,0.12,0.28S5.93,5.78,5.85,5.85C5.7,6,5.44,6,5.29,5.85L2.76,3.33
		C2.69,3.25,2.65,3.15,2.65,3.05C2.65,2.94,2.69,2.84,2.77,2.76z"/>
	<path id="XMLID_00000115493522401005849850000016339432788173461142_" class="st0" d="M22.22,15.04c-0.02-0.14-0.11-0.26-0.24-0.32
		L10.35,9.69c-0.13-0.06-0.28-0.04-0.4,0.05C9.84,9.82,9.78,9.96,9.8,10.1l1.59,12.57c0.02,0.14,0.11,0.26,0.24,0.32
		c0.13,0.06,0.28,0.04,0.39-0.05l2.91-2.19l3.05,4.06c0.08,0.1,0.2,0.16,0.32,0.16c0.08,0,0.17-0.03,0.24-0.08l3.58-2.69
		c0.08-0.06,0.14-0.16,0.15-0.26c0.01-0.1-0.01-0.21-0.08-0.29l-3.05-4.06l2.91-2.19C22.18,15.32,22.23,15.18,22.22,15.04z
		 M18.36,17.19c-0.08,0.06-0.14,0.16-0.15,0.26c-0.02,0.1,0.01,0.21,0.08,0.29l3.05,4.06l-2.94,2.21l-3.05-4.06
		c-0.08-0.1-0.2-0.16-0.32-0.16c-0.08,0-0.17,0.03-0.24,0.08L12.1,21.9l-1.42-11.2l10.36,4.48L18.36,17.19z"/>
</g>
</svg>
