<?xml version="1.0" encoding="utf-8"?>
<!-- Generator: Adobe Illustrator 28.2.0, SVG Export Plug-In . SVG Version: 6.00 Build 0)  -->
<svg version="1.1" id="Layer_1" xmlns="http://www.w3.org/2000/svg" xmlns:xlink="http://www.w3.org/1999/xlink" x="0px" y="0px"
	 viewBox="0 0 55.26 51.94" style="enable-background:new 0 0 55.26 51.94;" xml:space="preserve">
<style type="text/css">
	.st0{fill:url(#SVGID_1_);}
	.st1{fill:url(#SVGID_00000152960492376852455860000003156158801264433064_);}
	.st2{fill:url(#SVGID_00000114794101653897124130000004550633546242065846_);}
	.st3{fill:#F7FFFF;}
</style>
<g>
	<linearGradient id="SVGID_1_" gradientUnits="userSpaceOnUse" x1="0.1136" y1="25.234" x2="54.3828" y2="25.234">
		<stop  offset="0" style="stop-color:#F5F5F5"/>
		<stop  offset="0.0242" style="stop-color:#F5F5F5"/>
		<stop  offset="1" style="stop-color:#E8E8E8"/>
	</linearGradient>
	<path class="st0" d="M17.38,2.85C3.43,9-3.47,24.01,1.98,36.37c5.45,12.36,21.18,17.4,35.14,11.25
		c13.96-6.15,20.85-21.16,15.4-33.52C47.07,1.73,31.34-3.3,17.38,2.85z M34.23,41.08c-9.88,4.36-21.02,0.79-24.88-7.96
		C5.5,24.37,10.38,13.74,20.26,9.38c9.88-4.36,21.02-0.79,24.88,7.96C49,26.1,44.12,36.73,34.23,41.08z"/>
	<g>
		
			<linearGradient id="SVGID_00000029014135559664286390000009796130146410250143_" gradientUnits="userSpaceOnUse" x1="1.9783" y1="33.0184" x2="55.2573" y2="33.0184">
			<stop  offset="0" style="stop-color:#C3D1D1"/>
			<stop  offset="0.5389" style="stop-color:#B7BDBD"/>
			<stop  offset="1" style="stop-color:#B0B0B0"/>
		</linearGradient>
		<path style="fill:url(#SVGID_00000029014135559664286390000009796130146410250143_);" d="M1.98,36.37c0,0,0.17,0.27,0.49,0.79
			c0.32,0.52,0.82,1.23,1.49,2.11c0.69,0.86,1.58,1.86,2.7,2.88c1.12,1.02,2.5,2.03,4.08,2.95c1.59,0.91,3.42,1.72,5.41,2.32
			c2,0.61,4.18,0.96,6.43,1.1c2.26,0.11,4.6-0.02,6.93-0.46c2.33-0.42,4.64-1.15,6.85-2.12c0.48-0.24,1.19-0.53,1.65-0.79l0.78-0.4
			l0.78-0.45c1.03-0.62,2.04-1.26,2.97-1.98c1.89-1.42,3.58-3.06,5.02-4.8c1.42-1.76,2.63-3.6,3.53-5.49
			c0.9-1.88,1.54-3.77,1.94-5.56c0.39-1.79,0.57-3.49,0.58-5.01c0-1.51-0.13-2.84-0.31-3.94c-0.19-1.09-0.38-1.95-0.55-2.52
			c-0.16-0.58-0.25-0.89-0.25-0.89s0.15,0.28,0.45,0.81c0.15,0.26,0.3,0.61,0.49,1.01c0.2,0.4,0.37,0.87,0.57,1.41
			c0.38,1.08,0.78,2.42,1,4.02c0.24,1.59,0.32,3.44,0.11,5.44c-0.09,1-0.27,2.03-0.5,3.1c-0.25,1.06-0.58,2.14-1,3.22
			c-0.82,2.17-1.97,4.35-3.47,6.4c-0.76,1.02-1.57,2.02-2.48,2.96c-0.44,0.48-0.93,0.93-1.41,1.38c-0.5,0.43-0.99,0.88-1.52,1.29
			c-1.04,0.84-2.14,1.61-3.3,2.3l-0.87,0.51l-0.92,0.49c-0.65,0.36-1.14,0.55-1.8,0.88c-2.49,1.06-5.1,1.87-7.74,2.27
			c-1.32,0.22-2.64,0.33-3.94,0.36c-1.31,0.05-2.6-0.03-3.86-0.16c-2.52-0.28-4.91-0.9-7.06-1.76c-2.16-0.83-4.06-1.95-5.67-3.15
			c-1.62-1.19-2.92-2.5-3.94-3.75c-1.03-1.24-1.75-2.45-2.29-3.45c-0.26-0.51-0.5-0.96-0.66-1.38c-0.17-0.41-0.32-0.75-0.41-1.04
			C2.08,36.68,1.98,36.37,1.98,36.37z"/>
		
			<linearGradient id="SVGID_00000063610266916387598660000005792105150419069887_" gradientUnits="userSpaceOnUse" x1="7.16" y1="19.4747" x2="45.1424" y2="19.4747">
			<stop  offset="0" style="stop-color:#C3D1D1"/>
			<stop  offset="0.5389" style="stop-color:#B7BDBD"/>
			<stop  offset="1" style="stop-color:#B0B0B0"/>
		</linearGradient>
		<path style="fill:url(#SVGID_00000063610266916387598660000005792105150419069887_);" d="M9.35,33.12c0,0-0.11-0.2-0.33-0.57
			c-0.19-0.39-0.56-0.9-0.82-1.68c-0.13-0.38-0.34-0.81-0.46-1.29c-0.12-0.48-0.26-1-0.38-1.57c-0.07-0.57-0.16-1.19-0.21-1.84
			c0-0.33,0-0.66-0.01-1.01c0-0.35-0.01-0.7,0.04-1.06c0.08-0.72,0.14-1.48,0.33-2.24c0.09-0.38,0.16-0.78,0.28-1.17
			c0.13-0.39,0.26-0.78,0.39-1.17c0.07-0.2,0.13-0.4,0.21-0.6c0.09-0.19,0.18-0.39,0.26-0.58c0.18-0.39,0.35-0.79,0.56-1.18
			c0.44-0.76,0.87-1.56,1.43-2.29c1.04-1.52,2.38-2.89,3.88-4.11c0.38-0.29,0.77-0.59,1.15-0.89c0.4-0.28,0.82-0.53,1.23-0.79
			l0.62-0.39l0.65-0.33l0.66-0.33l0.33-0.16l0.16-0.08l0.08-0.04l0.04-0.02l0.02-0.01c0.04-0.02-0.06,0.02,0.1-0.04l1.27-0.48
			l0.64-0.24l0.73-0.21c0.49-0.14,0.98-0.29,1.46-0.4c0.48-0.08,0.96-0.17,1.43-0.25c1.91-0.28,3.83-0.34,5.65-0.09
			c0.91,0.08,1.8,0.3,2.66,0.49c0.43,0.11,0.84,0.26,1.25,0.39c0.41,0.13,0.81,0.26,1.19,0.44c0.38,0.17,0.76,0.34,1.13,0.5
			c0.36,0.18,0.71,0.39,1.05,0.58c0.69,0.37,1.29,0.84,1.88,1.26c0.3,0.2,0.55,0.45,0.81,0.69c0.25,0.23,0.5,0.46,0.74,0.68
			c0.45,0.48,0.85,0.96,1.22,1.4c0.34,0.47,0.64,0.92,0.91,1.34c0.28,0.41,0.44,0.85,0.64,1.2c0.4,0.71,0.54,1.35,0.69,1.75
			c0.13,0.41,0.2,0.63,0.2,0.63s-0.14-0.19-0.39-0.53c-0.26-0.34-0.58-0.87-1.12-1.44c-0.27-0.29-0.51-0.64-0.87-0.95
			c-0.35-0.31-0.7-0.67-1.1-1.01c-0.43-0.32-0.86-0.68-1.34-1.01c-0.25-0.16-0.5-0.32-0.77-0.48c-0.26-0.16-0.52-0.34-0.81-0.47
			c-0.58-0.28-1.14-0.62-1.8-0.84c-0.32-0.12-0.63-0.27-0.97-0.38c-0.34-0.1-0.68-0.2-1.03-0.3c-0.34-0.11-0.7-0.19-1.06-0.26
			c-0.36-0.07-0.72-0.16-1.1-0.22c-0.75-0.07-1.51-0.22-2.29-0.21c-0.39,0-0.78-0.05-1.18-0.02c-0.4,0.02-0.79,0.04-1.19,0.05
			c-0.4,0.01-0.8,0.1-1.2,0.14c-0.4,0.05-0.81,0.08-1.2,0.19c-0.4,0.09-0.8,0.17-1.2,0.26c-0.38,0.11-0.76,0.22-1.14,0.33
			l-0.57,0.16l-0.63,0.24l-1.26,0.5c0.15-0.06,0.03-0.01,0.06-0.02l-0.02,0.01l-0.03,0.02l-0.07,0.03l-0.14,0.07l-0.28,0.14
			l-0.56,0.27l-0.56,0.27l-0.53,0.32c-0.35,0.22-0.71,0.42-1.06,0.64c-0.33,0.24-0.67,0.48-1,0.71c-0.35,0.22-0.64,0.5-0.95,0.76
			c-0.3,0.27-0.64,0.5-0.91,0.79c-0.28,0.28-0.57,0.57-0.85,0.85c-0.29,0.27-0.52,0.59-0.78,0.88c-0.54,0.57-0.93,1.23-1.39,1.83
			c-0.21,0.31-0.39,0.64-0.58,0.96c-0.19,0.32-0.38,0.63-0.53,0.96c-0.16,0.33-0.32,0.65-0.47,0.96c-0.14,0.32-0.25,0.65-0.38,0.97
			c-0.28,0.63-0.41,1.28-0.6,1.89c-0.1,0.31-0.14,0.62-0.2,0.92c-0.06,0.3-0.11,0.6-0.16,0.89c-0.08,0.58-0.1,1.14-0.15,1.67
			c-0.01,0.53,0.02,1.03,0.01,1.49c-0.01,0.24,0.02,0.45,0.04,0.66c0.02,0.21,0.05,0.41,0.07,0.6c0.06,0.77,0.24,1.4,0.32,1.81
			C9.31,32.9,9.35,33.12,9.35,33.12z"/>
	</g>
	<g>
		<path class="st3" d="M52.52,14.1c0,0-0.14-0.29-0.41-0.83c-0.27-0.54-0.69-1.31-1.31-2.24c-0.63-0.92-1.44-2.01-2.53-3.13
			c-1.08-1.11-2.43-2.25-4.02-3.29c-1.6-1.04-3.45-1.98-5.52-2.68c-2.06-0.72-4.33-1.18-6.7-1.38c-2.37-0.18-4.85-0.09-7.31,0.34
			c-2.47,0.41-4.9,1.18-7.23,2.19c-2.32,1.04-4.52,2.31-6.49,3.86c-1.98,1.52-3.72,3.29-5.18,5.16c-1.45,1.89-2.64,3.87-3.5,5.88
			c-0.88,2-1.44,4-1.75,5.88c-0.31,1.88-0.38,3.64-0.29,5.19c0.09,1.55,0.34,2.89,0.6,3.97c0.27,1.08,0.56,1.92,0.77,2.48
			c0.22,0.56,0.34,0.86,0.34,0.86s-0.12-0.29-0.36-0.85c-0.23-0.55-0.54-1.38-0.84-2.46c-0.29-1.08-0.57-2.42-0.71-3.98
			c-0.13-1.56-0.11-3.34,0.18-5.25c0.29-1.91,0.82-3.95,1.69-5.99c0.85-2.05,2.02-4.09,3.49-6.01c1.48-1.91,3.24-3.72,5.24-5.27
			c1.99-1.57,4.24-2.89,6.58-3.95c2.37-1.02,4.85-1.79,7.36-2.19c2.5-0.43,5.02-0.51,7.43-0.31c2.41,0.21,4.71,0.72,6.79,1.48
			c2.09,0.73,3.96,1.72,5.56,2.79c1.61,1.07,2.94,2.26,4,3.41c1.06,1.15,1.86,2.27,2.46,3.21c0.59,0.95,1,1.74,1.25,2.28
			C52.38,13.81,52.52,14.1,52.52,14.1z"/>
		<path class="st3" d="M45.14,17.35c0,0,0.08,0.21,0.24,0.6c0.14,0.4,0.43,0.96,0.6,1.74c0.09,0.39,0.25,0.81,0.31,1.28
			c0.07,0.47,0.16,0.99,0.22,1.54c0.02,0.55,0.06,1.15,0.06,1.77c-0.02,0.31-0.04,0.63-0.07,0.96c-0.03,0.33-0.04,0.66-0.11,1
			c-0.13,0.67-0.22,1.38-0.45,2.09c-0.11,0.35-0.19,0.72-0.32,1.08c-0.14,0.36-0.28,0.72-0.42,1.08c-0.13,0.37-0.31,0.73-0.5,1.09
			c-0.19,0.36-0.36,0.73-0.56,1.09c-0.45,0.69-0.86,1.43-1.42,2.09c-1.02,1.38-2.31,2.63-3.71,3.75c-0.36,0.27-0.72,0.54-1.09,0.81
			c-0.38,0.25-0.77,0.48-1.16,0.72l-0.58,0.36l-0.61,0.31l-1.24,0.62l-1.27,0.49l-0.63,0.24l-0.66,0.19
			c-0.44,0.12-0.88,0.26-1.32,0.37c-0.45,0.08-0.89,0.17-1.33,0.25c-1.78,0.28-3.56,0.39-5.27,0.21c-0.86-0.04-1.69-0.22-2.5-0.37
			c-0.4-0.09-0.79-0.21-1.18-0.32c-0.39-0.1-0.77-0.21-1.14-0.37c-0.37-0.14-0.73-0.28-1.09-0.42c-0.35-0.15-0.68-0.33-1.01-0.49
			c-0.68-0.3-1.26-0.72-1.84-1.08c-0.3-0.17-0.55-0.39-0.81-0.59c-0.26-0.2-0.51-0.4-0.75-0.6c-0.46-0.42-0.87-0.85-1.27-1.23
			c-0.37-0.42-0.68-0.83-0.99-1.2c-0.31-0.37-0.51-0.77-0.74-1.09c-0.46-0.65-0.68-1.24-0.88-1.62c-0.18-0.38-0.28-0.59-0.28-0.59
			s0.11,0.2,0.31,0.57c0.21,0.37,0.46,0.94,0.94,1.58c0.24,0.32,0.45,0.7,0.77,1.06c0.32,0.36,0.64,0.76,1.01,1.15
			c0.41,0.37,0.82,0.78,1.29,1.18c0.25,0.18,0.5,0.37,0.75,0.57c0.26,0.19,0.51,0.4,0.81,0.57c0.58,0.34,1.16,0.74,1.83,1.02
			c0.33,0.15,0.66,0.33,1,0.46c0.35,0.13,0.71,0.26,1.07,0.39c0.36,0.14,0.74,0.24,1.12,0.34c0.38,0.09,0.77,0.21,1.16,0.29
			c0.8,0.11,1.61,0.31,2.45,0.33c1.67,0.17,3.42,0.05,5.15-0.24c0.43-0.09,0.87-0.17,1.3-0.26c0.43-0.11,0.85-0.24,1.28-0.36
			l0.64-0.19l0.63-0.24l1.26-0.5l1.19-0.59l0.6-0.3l0.57-0.35c0.38-0.24,0.77-0.46,1.14-0.7c0.36-0.26,0.71-0.53,1.07-0.79
			c1.38-1.09,2.65-2.3,3.65-3.64c0.55-0.64,0.95-1.36,1.41-2.03c0.21-0.35,0.38-0.71,0.57-1.05c0.19-0.35,0.37-0.69,0.51-1.05
			c0.15-0.36,0.29-0.71,0.44-1.05c0.13-0.35,0.22-0.71,0.33-1.05c0.24-0.69,0.34-1.38,0.48-2.04c0.08-0.33,0.1-0.66,0.13-0.98
			c0.03-0.32,0.06-0.63,0.09-0.94c0.02-0.61,0-1.2,0-1.75c-0.04-0.55-0.12-1.06-0.17-1.53c-0.05-0.47-0.19-0.89-0.26-1.28
			c-0.15-0.78-0.4-1.35-0.53-1.76C45.22,17.56,45.14,17.35,45.14,17.35z"/>
	</g>
</g>
</svg>
