<?xml version="1.0" encoding="utf-8"?>
<!-- Generator: Adobe Illustrator 28.2.0, SVG Export Plug-In . SVG Version: 6.00 Build 0)  -->
<svg version="1.1" id="Layer_1" xmlns="http://www.w3.org/2000/svg" xmlns:xlink="http://www.w3.org/1999/xlink" x="0px" y="0px"
	 viewBox="0 0 36.69 37.21" style="enable-background:new 0 0 36.69 37.21;" xml:space="preserve">
<style type="text/css">
	.st0{fill:#FFFFFF;}
</style>
<g>
	<g>
		<g>
			<path class="st0" d="M23.46,37.21H2c-1.1,0-2-0.9-2-2V8.08c0-0.16,0.13-0.29,0.29-0.29h6.07c0.79,0,1.43-0.64,1.43-1.43V0.29
				C7.79,0.13,7.92,0,8.08,0h20.14c1.1,0,2,0.9,2,2v15.66c0,0.09-0.04,0.17-0.11,0.23c-0.07,0.05-0.16,0.07-0.25,0.05
				c-0.52-0.15-1.07-0.17-1.63-0.06c-1.39,0.26-2.49,1.38-2.75,2.78c-0.12,0.63-0.07,1.27,0.14,1.85c0.88,2.49,1.23,4.73,1.07,6.85
				l-0.11,1.53c-0.01,0.15-0.14,0.26-0.29,0.26h-3.14c-0.67,0-1.21,0.54-1.21,1.21v2.07c0,0.26,0.21,0.46,0.46,0.46h0.31
				c0.16,0,0.29,0.13,0.29,0.29v1c0,0.26,0.21,0.46,0.46,0.46c0.16,0,0.29,0.13,0.29,0.29S23.62,37.21,23.46,37.21z M0.57,8.37
				v26.84c0,0.79,0.64,1.43,1.43,1.43h20.53c-0.07-0.14-0.11-0.3-0.11-0.46l-0.02-0.71c-0.57,0-1.03-0.47-1.03-1.04v-2.07
				c0-0.98,0.8-1.78,1.78-1.78h2.87l0.09-1.27c0.15-2.03-0.19-4.2-1.04-6.62c-0.24-0.67-0.3-1.41-0.16-2.14
				c0.3-1.63,1.59-2.93,3.2-3.23c0.52-0.1,1.03-0.11,1.53-0.02V2.01c0-0.79-0.64-1.43-1.43-1.43H8.36v5.79c0,1.1-0.9,2-2,2H0.57z"/>
		</g>
		<g>
			<path class="st0" d="M6.36,8.36H0.29c-0.12,0-0.22-0.07-0.26-0.18C-0.02,8.08,0,7.96,0.09,7.87l7.79-7.79
				C7.96,0,8.08-0.02,8.19,0.02C8.3,0.07,8.37,0.17,8.37,0.29v6.07C8.37,7.46,7.47,8.36,6.36,8.36z M0.98,7.79h5.38
				c0.79,0,1.43-0.64,1.43-1.43V0.98L0.98,7.79z"/>
		</g>
		<g>
			<g>
				<path class="st0" d="M26.69,15.28h-15.5c-0.16,0-0.29-0.13-0.29-0.29c0-0.16,0.13-0.29,0.29-0.29h15.5
					c0.16,0,0.29,0.13,0.29,0.29C26.97,15.15,26.84,15.28,26.69,15.28z"/>
			</g>
			<g>
				<path class="st0" d="M7.53,15.28H3.54c-0.16,0-0.29-0.13-0.29-0.29c0-0.16,0.13-0.29,0.29-0.29h3.99c0.16,0,0.29,0.13,0.29,0.29
					C7.82,15.15,7.69,15.28,7.53,15.28z"/>
			</g>
			<g>
				<path class="st0" d="M25.96,19.03h-1.71c-0.16,0-0.29-0.13-0.29-0.29c0-0.16,0.13-0.29,0.29-0.29h1.71
					c0.16,0,0.29,0.13,0.29,0.29C26.24,18.9,26.12,19.03,25.96,19.03z"/>
			</g>
			<g>
				<path class="st0" d="M20.96,19.03H3.54c-0.16,0-0.29-0.13-0.29-0.29c0-0.16,0.13-0.29,0.29-0.29h17.42
					c0.16,0,0.29,0.13,0.29,0.29C21.25,18.9,21.12,19.03,20.96,19.03z"/>
			</g>
			<g>
				<path class="st0" d="M25.34,22.78h-13.3c-0.16,0-0.29-0.13-0.29-0.29c0-0.16,0.13-0.29,0.29-0.29h13.3
					c0.16,0,0.29,0.13,0.29,0.29C25.63,22.65,25.5,22.78,25.34,22.78z"/>
			</g>
			<g>
				<path class="st0" d="M8.56,22.78H3.54c-0.16,0-0.29-0.13-0.29-0.29c0-0.16,0.13-0.29,0.29-0.29h5.02c0.16,0,0.29,0.13,0.29,0.29
					C8.84,22.65,8.72,22.78,8.56,22.78z"/>
			</g>
			<g>
				<path class="st0" d="M23.26,26.53h-4.59c-0.16,0-0.29-0.13-0.29-0.29s0.13-0.29,0.29-0.29h4.59c0.16,0,0.29,0.13,0.29,0.29
					S23.42,26.53,23.26,26.53z"/>
			</g>
			<g>
				<path class="st0" d="M15.71,26.53H3.54c-0.16,0-0.29-0.13-0.29-0.29s0.13-0.29,0.29-0.29h12.18c0.16,0,0.29,0.13,0.29,0.29
					S15.87,26.53,15.71,26.53z"/>
			</g>
			<g>
				<path class="st0" d="M8.56,26.53H3.54c-0.16,0-0.29-0.13-0.29-0.29s0.13-0.29,0.29-0.29h5.02c0.16,0,0.29,0.13,0.29,0.29
					S8.72,26.53,8.56,26.53z"/>
			</g>
			<g>
				<path class="st0" d="M20.96,30.28H3.54c-0.16,0-0.29-0.13-0.29-0.29c0-0.16,0.13-0.29,0.29-0.29h17.42
					c0.16,0,0.29,0.13,0.29,0.29C21.25,30.15,21.12,30.28,20.96,30.28z"/>
			</g>
		</g>
	</g>
	<g>
		<g>
			<path class="st0" d="M34.6,37.21H23.46c-0.57,0-1.04-0.46-1.04-1.04v-1c0-0.16,0.13-0.29,0.29-0.29h12.65
				c0.16,0,0.29,0.13,0.29,0.29v1C35.64,36.74,35.18,37.21,34.6,37.21z M22.99,35.46v0.71c0,0.26,0.21,0.46,0.46,0.46H34.6
				c0.26,0,0.46-0.21,0.46-0.46v-0.71H22.99z"/>
		</g>
		<g>
			<path class="st0" d="M35.66,35.46H22.4c-0.57,0-1.04-0.46-1.04-1.04v-2.06c0-0.98,0.8-1.78,1.79-1.78h11.76
				c0.98,0,1.79,0.8,1.79,1.78v2.06C36.69,35,36.23,35.46,35.66,35.46z M23.15,31.15c-0.67,0-1.21,0.54-1.21,1.21v2.06
				c0,0.26,0.21,0.46,0.46,0.46h13.26c0.26,0,0.46-0.21,0.46-0.46v-2.06c0-0.67-0.54-1.21-1.21-1.21H23.15z"/>
		</g>
		<g>
			<path class="st0" d="M31.58,31.15h-5.3c-0.08,0-0.16-0.03-0.21-0.09C26.03,31,26,30.92,26,30.85l0.11-1.53
				c0.15-2.04-0.19-4.21-1.05-6.61c-0.24-0.68-0.3-1.42-0.16-2.15c0.3-1.62,1.59-2.92,3.21-3.24c1.23-0.24,2.48,0.07,3.43,0.86
				c0.95,0.78,1.49,1.93,1.49,3.16c0,0.55-0.11,1.07-0.31,1.57c-0.81,1.94-1.13,4.24-0.93,6.83l0,0l0.08,1.11
				c0.01,0.08-0.02,0.16-0.08,0.22C31.74,31.12,31.66,31.15,31.58,31.15z M26.6,30.58h4.68l-0.06-0.8c-0.2-2.68,0.13-5.06,0.98-7.09
				c0.18-0.43,0.27-0.88,0.27-1.35c0-1.06-0.47-2.05-1.28-2.72c-0.82-0.67-1.89-0.94-2.96-0.74c-1.39,0.27-2.49,1.39-2.75,2.78
				c-0.12,0.64-0.07,1.26,0.14,1.85c0.88,2.48,1.23,4.72,1.08,6.85L26.6,30.58z"/>
		</g>
	</g>
	<g>
		<path class="st0" d="M16.68,12.55c-1.42,0-2.58-1.16-2.58-2.58c0-0.16,0.13-0.29,0.29-0.29s0.29,0.13,0.29,0.29
			c0,1.11,0.9,2.01,2.01,2.01c1.11,0,2.01-0.9,2.01-2.01s-0.9-2.01-2.01-2.01c-1.42,0-2.58-1.16-2.58-2.58
			c0-1.42,1.16-2.58,2.58-2.58c1.42,0,2.58,1.16,2.58,2.58c0,0.16-0.13,0.29-0.29,0.29c-0.16,0-0.29-0.13-0.29-0.29
			c0-1.11-0.9-2.01-2.01-2.01c-1.11,0-2.01,0.9-2.01,2.01s0.9,2.01,2.01,2.01c1.42,0,2.58,1.16,2.58,2.58
			C19.26,11.39,18.1,12.55,16.68,12.55z"/>
	</g>
	<g>
		<path class="st0" d="M16.68,13.2c-0.16,0-0.29-0.13-0.29-0.29v-0.65c0-0.16,0.13-0.29,0.29-0.29c0.16,0,0.29,0.13,0.29,0.29v0.65
			C16.97,13.07,16.84,13.2,16.68,13.2z"/>
	</g>
	<g>
		<path class="st0" d="M16.68,3.37c-0.16,0-0.29-0.13-0.29-0.29V2.44c0-0.16,0.13-0.29,0.29-0.29c0.16,0,0.29,0.13,0.29,0.29v0.65
			C16.97,3.25,16.84,3.37,16.68,3.37z"/>
	</g>
</g>
</svg>
