<?xml version="1.0" encoding="utf-8"?>
<!-- Generator: Adobe Illustrator 28.2.0, SVG Export Plug-In . SVG Version: 6.00 Build 0)  -->
<svg version="1.1" id="Layer_1" xmlns="http://www.w3.org/2000/svg" xmlns:xlink="http://www.w3.org/1999/xlink" x="0px" y="0px"
	 viewBox="0 0 40.83 38.57" style="enable-background:new 0 0 40.83 38.57;" xml:space="preserve">
<style type="text/css">
	.st0{fill:#FFFFFF;}
</style>
<g>
	<path class="st0" d="M23.61,13.65c-0.63,0-1.49-0.39-2.41-0.8c-0.49-0.22-1.22-0.55-1.43-0.56H4.78C2.14,12.28,0,10.1,0,7.42V4.87
		C0,2.18,2.14,0,4.78,0h14.99c2.63,0,4.78,2.18,4.78,4.87v2.55c0,0.81-0.2,1.61-0.58,2.32c0,0.22,0.2,0.82,0.32,1.18
		c0.36,1.07,0.69,2.08-0.05,2.56C24.06,13.59,23.85,13.65,23.61,13.65z M4.78,1.35c-1.89,0-3.43,1.58-3.43,3.52v2.55
		c0,1.94,1.54,3.52,3.43,3.52h14.99c0.46,0,1.06,0.26,1.99,0.68c0.49,0.22,1.11,0.51,1.53,0.63c-0.07-0.28-0.19-0.64-0.27-0.9
		c-0.31-0.93-0.56-1.66-0.25-2.2c0.29-0.52,0.44-1.12,0.44-1.73V4.87c0-1.94-1.54-3.52-3.43-3.52H4.78z"/>
	<path class="st0" d="M32.5,16.25c-0.29-4.3-3.73-7.75-8.02-8.05c-0.08,0.47-0.22,0.93-0.43,1.36c3.7,0.1,6.73,2.97,7.06,6.61
		c-0.89,0.03-1.6,0.77-1.6,1.68v6.7c0,0.9,0.69,1.63,1.57,1.68c-0.48,3.56-3.53,6.32-7.22,6.32v1.39c4.48,0,8.17-3.41,8.63-7.77
		c1.22-0.29,2.12-1.39,2.12-2.69v-4.54C34.6,17.64,33.7,16.55,32.5,16.25z"/>
	<path class="st0" d="M16.6,16.18c0.13-1.47,0.71-2.81,1.58-3.89h-1.69c-0.73,1.17-1.18,2.52-1.28,3.97
		c-1.21,0.3-2.11,1.39-2.11,2.68v4.54c0,1.53,1.24,2.77,2.77,2.77h0.67c0.92,0,1.66-0.76,1.66-1.69v-6.7
		C18.2,16.95,17.49,16.21,16.6,16.18z"/>
	<path class="st0" d="M24.53,4.64c0,0.08,0.01,0.15,0.01,0.23v1.12c8.3,0.36,14.94,7.23,14.94,15.61c0,8.62-7.01,15.63-15.63,15.63
		c-8.62,0-15.63-7.01-15.63-15.63c0-3.49,1.15-6.71,3.09-9.31H9.67c-1.76,2.68-2.79,5.87-2.79,9.31c0,9.36,7.62,16.98,16.98,16.98
		c9.36,0,16.98-7.62,16.98-16.98C40.83,12.46,33.58,5,24.53,4.64z"/>
	<path class="st0" d="M20.01,8.21H4.51c-0.37,0-0.67-0.3-0.67-0.67c0-0.37,0.3-0.67,0.67-0.67h15.5c0.37,0,0.67,0.3,0.67,0.67
		C20.69,7.9,20.39,8.21,20.01,8.21z"/>
	<path class="st0" d="M20.01,4.94H4.51c-0.37,0-0.67-0.3-0.67-0.67c0-0.37,0.3-0.67,0.67-0.67h15.5c0.37,0,0.67,0.3,0.67,0.67
		C20.69,4.63,20.39,4.94,20.01,4.94z"/>
	<path class="st0" d="M24.07,35.7c-1.35,0-2.45-1.1-2.45-2.45c0-1.35,1.1-2.45,2.45-2.45c1.35,0,2.45,1.1,2.45,2.45
		C26.52,34.6,25.42,35.7,24.07,35.7z"/>
</g>
</svg>
