<?xml version="1.0" encoding="utf-8"?>
<!-- Generator: Adobe Illustrator 28.2.0, SVG Export Plug-In . SVG Version: 6.00 Build 0)  -->
<svg version="1.1" id="Layer_1" xmlns="http://www.w3.org/2000/svg" xmlns:xlink="http://www.w3.org/1999/xlink" x="0px" y="0px"
	 viewBox="0 0 37.33 39.44" style="enable-background:new 0 0 37.33 39.44;" xml:space="preserve">
<style type="text/css">
	.st0{fill:#FFFFFF;}
</style>
<g>
	<g>
		<g>
			<g>
				<g>
					<g>
						<g>
							<path class="st0" d="M22.58,39.44H4.1c-2.26,0-4.1-1.84-4.1-4.1V4.1C0,1.84,1.84,0,4.1,0h18.48c2.26,0,4.1,1.84,4.1,4.1
								v24.85c0,0.16-0.12,0.29-0.28,0.3c-0.87,0.07-1.7,0.18-2.39,0.31c-1.83,0.35-2.21,0.78-2.21,0.87c0,0.02,0,0.04-0.01,0.06
								v2.64c0,0.04,0.08,0.18,0.46,0.36c0.12,0.06,0.19,0.18,0.17,0.31c-0.01,0.13-0.11,0.23-0.23,0.26
								c-0.61,0.14-1.11,0.31-1.42,0.49c-0.26,0.15-0.32,0.26-0.32,0.29v2.7c0,0.13,0.59,0.7,3.46,1.07
								c0.14,0.02,0.25,0.13,0.26,0.27c0.02,0.14-0.06,0.27-0.2,0.32C23.55,39.36,23.07,39.44,22.58,39.44z M4.1,0.61
								c-1.92,0-3.49,1.56-3.49,3.49v31.24c0,1.93,1.57,3.5,3.49,3.5h17.68c-1.28-0.33-1.92-0.76-1.92-1.3v-2.7
								c0-0.45,0.47-0.73,0.62-0.81c0.25-0.14,0.56-0.26,0.93-0.38c-0.15-0.16-0.22-0.33-0.22-0.51v-2.7c0-0.03,0-0.06,0.01-0.08
								c0.07-0.6,0.96-1.05,2.69-1.39c0.65-0.13,1.38-0.22,2.18-0.3V4.1c0-1.92-1.57-3.49-3.5-3.49H4.1z M26.38,28.94L26.38,28.94
								L26.38,28.94z"/>
						</g>
						<g>
							<path class="st0" d="M20.63,34.59H4.1c-0.92,0-1.67-0.75-1.67-1.67V4.1c0-0.92,0.75-1.67,1.67-1.67h18.48
								c0.92,0,1.67,0.75,1.67,1.67v25.16c0,0.15-0.1,0.27-0.25,0.3c-1.83,0.35-2.21,0.78-2.21,0.87c0,0.02,0,0.04-0.01,0.06v2.64
								c0,0.04,0.08,0.18,0.46,0.36c0.12,0.06,0.19,0.18,0.17,0.31c-0.01,0.13-0.11,0.23-0.23,0.26c-0.61,0.14-1.11,0.31-1.42,0.49
								C20.73,34.57,20.68,34.59,20.63,34.59z M4.1,3.03c-0.59,0-1.06,0.48-1.06,1.06v28.82c0,0.59,0.48,1.07,1.06,1.07h16.46
								c0.23-0.12,0.52-0.23,0.86-0.33c-0.15-0.16-0.22-0.33-0.22-0.51v-2.7c0-0.03,0-0.06,0.01-0.08c0.07-0.57,0.87-1.01,2.45-1.34
								V4.1c0-0.59-0.48-1.06-1.07-1.06H4.1z"/>
						</g>
						<g>
							<path class="st0" d="M16.65,36.94h-6.62c-0.17,0-0.3-0.14-0.3-0.3c0-0.17,0.14-0.3,0.3-0.3h6.62c0.17,0,0.3,0.14,0.3,0.3
								C16.96,36.8,16.82,36.94,16.65,36.94z"/>
						</g>
					</g>
				</g>
			</g>
		</g>
	</g>
	<g>
		<g>
			<g>
				<path class="st0" d="M21.3,12.31H5.38c-0.54,0-0.98-0.44-0.98-0.98c0-0.54,0.44-0.98,0.98-0.98H21.3c0.54,0,0.98,0.44,0.98,0.98
					C22.28,11.87,21.84,12.31,21.3,12.31z M5.38,10.96c-0.21,0-0.37,0.17-0.37,0.37c0,0.21,0.17,0.37,0.37,0.37H21.3
					c0.21,0,0.37-0.17,0.37-0.37c0-0.21-0.17-0.37-0.37-0.37H5.38z"/>
			</g>
			<g>
				<path class="st0" d="M21.6,22.59H5.09c-0.17,0-0.3-0.14-0.3-0.3V21.8c0-0.85,0.69-1.54,1.54-1.54h14.03
					c0.85,0,1.54,0.69,1.54,1.54v0.49C21.9,22.45,21.76,22.59,21.6,22.59z M5.39,21.98h15.9V21.8c0-0.51-0.42-0.93-0.93-0.93H6.32
					c-0.51,0-0.93,0.42-0.93,0.93V21.98z"/>
			</g>
			<g>
				<g>
					<path class="st0" d="M9.4,20.86H6.85c-0.17,0-0.3-0.14-0.3-0.3v-8.55c0-0.17,0.14-0.3,0.3-0.3H9.4c0.17,0,0.3,0.14,0.3,0.3
						v8.55C9.7,20.73,9.57,20.86,9.4,20.86z M7.15,20.26H9.1v-7.95H7.15V20.26z"/>
				</g>
				<g>
					<path class="st0" d="M14.62,20.86h-2.55c-0.17,0-0.3-0.14-0.3-0.3v-8.55c0-0.17,0.14-0.3,0.3-0.3h2.55c0.17,0,0.3,0.14,0.3,0.3
						v8.55C14.92,20.73,14.79,20.86,14.62,20.86z M12.37,20.26h1.95v-7.95h-1.95V20.26z"/>
				</g>
				<g>
					<path class="st0" d="M19.84,20.86h-2.55c-0.17,0-0.3-0.14-0.3-0.3v-8.55c0-0.17,0.14-0.3,0.3-0.3h2.55c0.17,0,0.3,0.14,0.3,0.3
						v8.55C20.14,20.73,20,20.86,19.84,20.86z M17.58,20.26h1.95v-7.95h-1.95V20.26z"/>
				</g>
			</g>
			<g>
				<path class="st0" d="M20.63,10.96H5.84c-0.13,0-0.25-0.08-0.29-0.21c-0.04-0.12,0-0.26,0.11-0.34l6.94-5.22l0,0
					c0.38-0.28,0.9-0.28,1.28,0l6.94,5.22c0.1,0.08,0.15,0.21,0.11,0.34C20.87,10.87,20.76,10.96,20.63,10.96z M6.75,10.35h12.97
					l-6.21-4.67c-0.16-0.12-0.39-0.12-0.55,0L6.75,10.35z"/>
			</g>
			<g>
				<path class="st0" d="M13.23,9.4c-0.79,0-1.43-0.64-1.43-1.43c0-0.79,0.64-1.43,1.43-1.43c0.79,0,1.43,0.64,1.43,1.43
					C14.66,8.76,14.02,9.4,13.23,9.4z M13.23,7.14c-0.45,0-0.82,0.37-0.82,0.82s0.37,0.82,0.82,0.82c0.45,0,0.82-0.37,0.82-0.82
					S13.69,7.14,13.23,7.14z"/>
			</g>
		</g>
		<g>
			<path class="st0" d="M17.17,32.03H9.51c-0.71,0-1.29-0.58-1.29-1.29v-2.31c0-0.71,0.58-1.29,1.29-1.29h7.66
				c0.71,0,1.29,0.58,1.29,1.29v2.31C18.46,31.45,17.88,32.03,17.17,32.03z M9.51,27.75c-0.38,0-0.68,0.31-0.68,0.69v2.31
				c0,0.38,0.31,0.68,0.68,0.68h7.66c0.38,0,0.68-0.31,0.68-0.68v-2.31c0-0.38-0.31-0.69-0.68-0.69H9.51z"/>
		</g>
	</g>
	<g>
		<path class="st0" d="M27.92,39.44c-2.79,0-8.06-0.4-8.06-1.91v-2.7c0-0.17,0.14-0.3,0.3-0.3s0.3,0.14,0.3,0.3
			c0,0.44,2.63,1.3,7.46,1.3s7.46-0.86,7.46-1.3c0-0.17,0.14-0.3,0.3-0.3c0.17,0,0.3,0.14,0.3,0.3v2.7
			C35.98,39.04,30.71,39.44,27.92,39.44z M20.46,35.63v1.9c0,0.44,2.63,1.3,7.46,1.3s7.46-0.86,7.46-1.3v-1.9
			c-1.47,0.86-5.24,1.11-7.46,1.11S21.93,36.49,20.46,35.63z"/>
	</g>
	<g>
		<path class="st0" d="M27.92,36.74c-2.79,0-8.06-0.4-8.06-1.91c0-0.57,0.72-1.02,2.21-1.36c0.07-0.01,0.14-0.01,0.2,0.02
			c1.2,0.57,3.94,0.94,6.99,0.94c2.18,0,4.26-0.19,5.71-0.53c0.07-0.02,0.14-0.01,0.2,0.02c0.2,0.1,0.82,0.39,0.82,0.91
			C35.98,36.34,30.71,36.74,27.92,36.74z M22.1,34.09c-1.34,0.32-1.64,0.65-1.64,0.75c0,0.44,2.63,1.3,7.46,1.3s7.46-0.86,7.46-1.3
			c0,0,0-0.12-0.38-0.32c-1.49,0.33-3.57,0.52-5.74,0.52C26.2,35.04,23.42,34.67,22.1,34.09z"/>
	</g>
	<g>
		<path class="st0" d="M29.26,35.04c-2.79,0-8.07-0.4-8.07-1.91v-2.7c0-0.17,0.14-0.3,0.3-0.3s0.31,0.14,0.31,0.3
			c0,0.44,2.63,1.3,7.46,1.3s7.46-0.86,7.46-1.3c0-0.17,0.14-0.3,0.3-0.3c0.17,0,0.3,0.14,0.3,0.3v2.7
			C37.32,34.64,32.05,35.04,29.26,35.04z M21.8,31.23v1.91c0,0.44,2.63,1.3,7.46,1.3c4.83,0,7.46-0.86,7.46-1.3v-1.9
			c-1.47,0.86-5.24,1.11-7.46,1.11C27.04,32.34,23.26,32.08,21.8,31.23z"/>
	</g>
	<g>
		<path class="st0" d="M29.26,32.33c-2.79,0-8.07-0.4-8.07-1.9c0-1.5,5.28-1.9,8.07-1.9s8.07,0.4,8.07,1.9
			C37.33,31.94,32.05,32.33,29.26,32.33z M29.26,29.14c-4.83,0-7.46,0.86-7.46,1.3s2.63,1.3,7.46,1.3s7.46-0.86,7.46-1.3
			S34.09,29.14,29.26,29.14z"/>
	</g>
</g>
</svg>
