<?xml version="1.0" encoding="utf-8"?>
<!-- Generator: Adobe Illustrator 28.2.0, SVG Export Plug-In . SVG Version: 6.00 Build 0)  -->
<svg version="1.1" id="Layer_1" xmlns="http://www.w3.org/2000/svg" xmlns:xlink="http://www.w3.org/1999/xlink" x="0px" y="0px"
	 viewBox="0 0 36.98 36.9" style="enable-background:new 0 0 36.98 36.9;" xml:space="preserve">
<style type="text/css">
	.st0{fill:#FFFFFF;}
</style>
<g>
	<g>
		<g>
			<path class="st0" d="M28.71,7.47h-3.7c-0.16,0-0.28-0.13-0.28-0.28V4.46c0-0.16,0.13-0.28,0.28-0.28h1.66
				c1.28,0,2.32,1.04,2.32,2.33v0.68C28.99,7.34,28.86,7.47,28.71,7.47z M25.29,6.9h3.13V6.5c0-0.97-0.79-1.76-1.75-1.76h-1.38V6.9z
				"/>
		</g>
		<g>
			<path class="st0" d="M26.66,32.72h-1.65c-0.16,0-0.28-0.13-0.28-0.28v-2.72c0-0.16,0.13-0.28,0.28-0.28h3.7
				c0.16,0,0.28,0.13,0.28,0.28v0.68C28.99,31.68,27.95,32.72,26.66,32.72z M25.29,32.15h1.37c0.97,0,1.76-0.79,1.76-1.76V30h-3.13
				V32.15z"/>
		</g>
		<g>
			<path class="st0" d="M34.69,30h-9.68c-0.16,0-0.28-0.13-0.28-0.28V7.18c0-0.16,0.13-0.28,0.28-0.28h9.68
				c1.26,0,2.29,1.03,2.29,2.29v18.53C36.98,28.97,35.95,30,34.69,30z M25.29,29.43h9.4c0.95,0,1.72-0.77,1.72-1.72V9.19
				c0-0.95-0.77-1.72-1.72-1.72h-9.4V29.43z"/>
		</g>
		<g>
			<path class="st0" d="M32.45,29.95h-3.41c-0.16,0-0.28-0.13-0.28-0.28V7.18c0-0.16,0.13-0.28,0.28-0.28h3.41
				c0.16,0,0.28,0.13,0.28,0.28v22.48C32.74,29.82,32.61,29.95,32.45,29.95z M29.32,29.38h2.84V7.47h-2.84V29.38z"/>
		</g>
		<g>
			<path class="st0" d="M22.02,36.9H3.28C1.47,36.9,0,35.43,0,33.62V3.28C0,1.47,1.47,0,3.28,0h18.75c1.8,0,3.27,1.47,3.27,3.28
				v30.35C25.29,35.43,23.83,36.9,22.02,36.9z M3.28,0.57c-1.49,0-2.71,1.21-2.71,2.71v30.35c0,1.49,1.21,2.71,2.71,2.71h18.75
				c1.49,0,2.7-1.21,2.7-2.71V3.28c0-1.49-1.21-2.71-2.7-2.71H3.28z"/>
		</g>
		<g>
			<path class="st0" d="M20.99,13.44H4.31c-0.81,0-1.47-0.66-1.47-1.46V4.31c0-0.81,0.66-1.46,1.47-1.46h16.68
				c0.81,0,1.46,0.66,1.46,1.46v7.67C22.45,12.79,21.79,13.44,20.99,13.44z M4.31,3.41c-0.5,0-0.9,0.4-0.9,0.89v7.67
				c0,0.49,0.4,0.89,0.9,0.89h16.68c0.5,0,0.89-0.39,0.89-0.89V4.31c0-0.49-0.4-0.89-0.89-0.89H4.31z"/>
		</g>
		<g>
			<path class="st0" d="M6.19,34.05H3.71c-0.48,0-0.87-0.39-0.87-0.87v-2.17c0-0.48,0.39-0.86,0.87-0.86h2.48
				c0.48,0,0.87,0.39,0.87,0.86v2.17C7.06,33.66,6.67,34.05,6.19,34.05z M3.71,30.72c-0.17,0-0.3,0.13-0.3,0.3v2.17
				c0,0.17,0.14,0.3,0.3,0.3h2.48c0.17,0,0.3-0.14,0.3-0.3v-2.17c0-0.16-0.14-0.3-0.3-0.3H3.71z"/>
		</g>
		<g>
			<path class="st0" d="M16.43,24.29h-2.48c-0.48,0-0.87-0.39-0.87-0.86v-2.17c0-0.48,0.39-0.87,0.87-0.87h2.48
				c0.48,0,0.87,0.39,0.87,0.87v2.17C17.3,23.9,16.91,24.29,16.43,24.29z M13.95,20.95c-0.17,0-0.3,0.14-0.3,0.3v2.17
				c0,0.16,0.14,0.3,0.3,0.3h2.48c0.17,0,0.3-0.13,0.3-0.3v-2.17c0-0.17-0.14-0.3-0.3-0.3H13.95z"/>
		</g>
		<g>
			<path class="st0" d="M11.31,34.05H8.83c-0.48,0-0.87-0.39-0.87-0.87v-2.17c0-0.48,0.39-0.86,0.87-0.86h2.48
				c0.48,0,0.87,0.39,0.87,0.86v2.17C12.18,33.66,11.79,34.05,11.31,34.05z M8.83,30.72c-0.17,0-0.3,0.13-0.3,0.3v2.17
				c0,0.17,0.14,0.3,0.3,0.3h2.48c0.17,0,0.3-0.14,0.3-0.3v-2.17c0-0.16-0.14-0.3-0.3-0.3H8.83z"/>
		</g>
		<g>
			<path class="st0" d="M11.31,19.41H8.83c-0.48,0-0.87-0.39-0.87-0.87v-2.16c0-0.48,0.39-0.87,0.87-0.87h2.48
				c0.48,0,0.87,0.39,0.87,0.87v2.16C12.18,19.02,11.79,19.41,11.31,19.41z M8.83,16.07c-0.17,0-0.3,0.14-0.3,0.3v2.16
				c0,0.17,0.14,0.3,0.3,0.3h2.48c0.17,0,0.3-0.14,0.3-0.3v-2.16c0-0.17-0.14-0.3-0.3-0.3H8.83z"/>
		</g>
		<g>
			<path class="st0" d="M6.19,29.17H3.71c-0.48,0-0.87-0.39-0.87-0.86v-2.17c0-0.48,0.39-0.86,0.87-0.86h2.48
				c0.48,0,0.87,0.39,0.87,0.86v2.17C7.06,28.78,6.67,29.17,6.19,29.17z M3.71,25.84c-0.17,0-0.3,0.13-0.3,0.3v2.17
				c0,0.17,0.13,0.3,0.3,0.3h2.48c0.17,0,0.3-0.13,0.3-0.3v-2.17c0-0.16-0.14-0.3-0.3-0.3H3.71z"/>
		</g>
		<g>
			<path class="st0" d="M21.55,19.41h-2.48c-0.48,0-0.87-0.39-0.87-0.87v-2.16c0-0.48,0.39-0.87,0.87-0.87h2.48
				c0.48,0,0.87,0.39,0.87,0.87v2.16C22.42,19.02,22.03,19.41,21.55,19.41z M19.07,16.07c-0.17,0-0.3,0.14-0.3,0.3v2.16
				c0,0.17,0.14,0.3,0.3,0.3h2.48c0.17,0,0.3-0.14,0.3-0.3v-2.16c0-0.17-0.14-0.3-0.3-0.3H19.07z"/>
		</g>
		<g>
			<path class="st0" d="M21.55,34.05h-2.48c-0.48,0-0.87-0.39-0.87-0.87v-2.17c0-0.48,0.39-0.86,0.87-0.86h2.48
				c0.48,0,0.87,0.39,0.87,0.86v2.17C22.42,33.66,22.03,34.05,21.55,34.05z M19.07,30.72c-0.17,0-0.3,0.13-0.3,0.3v2.17
				c0,0.17,0.14,0.3,0.3,0.3h2.48c0.17,0,0.3-0.14,0.3-0.3v-2.17c0-0.16-0.14-0.3-0.3-0.3H19.07z"/>
		</g>
		<g>
			<path class="st0" d="M16.43,19.41h-2.48c-0.48,0-0.87-0.39-0.87-0.87v-2.16c0-0.48,0.39-0.87,0.87-0.87h2.48
				c0.48,0,0.87,0.39,0.87,0.87v2.16C17.3,19.02,16.91,19.41,16.43,19.41z M13.95,16.07c-0.17,0-0.3,0.14-0.3,0.3v2.16
				c0,0.17,0.14,0.3,0.3,0.3h2.48c0.17,0,0.3-0.14,0.3-0.3v-2.16c0-0.17-0.14-0.3-0.3-0.3H13.95z"/>
		</g>
		<g>
			<path class="st0" d="M11.31,24.29H8.83c-0.48,0-0.87-0.39-0.87-0.86v-2.17c0-0.48,0.39-0.87,0.87-0.87h2.48
				c0.48,0,0.87,0.39,0.87,0.87v2.17C12.18,23.9,11.79,24.29,11.31,24.29z M8.83,20.95c-0.17,0-0.3,0.14-0.3,0.3v2.17
				c0,0.16,0.14,0.3,0.3,0.3h2.48c0.17,0,0.3-0.13,0.3-0.3v-2.17c0-0.17-0.14-0.3-0.3-0.3H8.83z"/>
		</g>
		<g>
			<path class="st0" d="M16.43,29.17h-2.48c-0.48,0-0.87-0.39-0.87-0.86v-2.17c0-0.48,0.39-0.86,0.87-0.86h2.48
				c0.48,0,0.87,0.39,0.87,0.86v2.17C17.3,28.78,16.91,29.17,16.43,29.17z M13.95,25.84c-0.17,0-0.3,0.13-0.3,0.3v2.17
				c0,0.17,0.13,0.3,0.3,0.3h2.48c0.17,0,0.3-0.13,0.3-0.3v-2.17c0-0.16-0.14-0.3-0.3-0.3H13.95z"/>
		</g>
		<g>
			<path class="st0" d="M11.31,29.17H8.83c-0.48,0-0.87-0.39-0.87-0.86v-2.17c0-0.48,0.39-0.86,0.87-0.86h2.48
				c0.48,0,0.87,0.39,0.87,0.86v2.17C12.18,28.78,11.79,29.17,11.31,29.17z M8.83,25.84c-0.17,0-0.3,0.13-0.3,0.3v2.17
				c0,0.17,0.13,0.3,0.3,0.3h2.48c0.17,0,0.3-0.13,0.3-0.3v-2.17c0-0.16-0.14-0.3-0.3-0.3H8.83z"/>
		</g>
		<g>
			<path class="st0" d="M21.55,29.17h-2.48c-0.48,0-0.87-0.39-0.87-0.86v-2.17c0-0.48,0.39-0.86,0.87-0.86h2.48
				c0.48,0,0.87,0.39,0.87,0.86v2.17C22.42,28.78,22.03,29.17,21.55,29.17z M19.07,25.84c-0.17,0-0.3,0.13-0.3,0.3v2.17
				c0,0.17,0.13,0.3,0.3,0.3h2.48c0.17,0,0.3-0.13,0.3-0.3v-2.17c0-0.16-0.14-0.3-0.3-0.3H19.07z"/>
		</g>
		<g>
			<path class="st0" d="M6.19,19.41H3.71c-0.48,0-0.87-0.39-0.87-0.87v-2.16c0-0.48,0.39-0.87,0.87-0.87h2.48
				c0.48,0,0.87,0.39,0.87,0.87v2.16C7.06,19.02,6.67,19.41,6.19,19.41z M3.71,16.07c-0.17,0-0.3,0.14-0.3,0.3v2.16
				c0,0.17,0.14,0.3,0.3,0.3h2.48c0.17,0,0.3-0.14,0.3-0.3v-2.16c0-0.17-0.14-0.3-0.3-0.3H3.71z"/>
		</g>
		<g>
			<path class="st0" d="M6.19,24.29H3.71c-0.48,0-0.87-0.39-0.87-0.86v-2.17c0-0.48,0.39-0.87,0.87-0.87h2.48
				c0.48,0,0.87,0.39,0.87,0.87v2.17C7.06,23.9,6.67,24.29,6.19,24.29z M3.71,20.95c-0.17,0-0.3,0.14-0.3,0.3v2.17
				c0,0.16,0.14,0.3,0.3,0.3h2.48c0.17,0,0.3-0.13,0.3-0.3v-2.17c0-0.17-0.14-0.3-0.3-0.3H3.71z"/>
		</g>
		<g>
			<path class="st0" d="M21.55,24.29h-2.48c-0.48,0-0.87-0.39-0.87-0.86v-2.17c0-0.48,0.39-0.87,0.87-0.87h2.48
				c0.48,0,0.87,0.39,0.87,0.87v2.17C22.42,23.9,22.03,24.29,21.55,24.29z M19.07,20.95c-0.17,0-0.3,0.14-0.3,0.3v2.17
				c0,0.16,0.14,0.3,0.3,0.3h2.48c0.17,0,0.3-0.13,0.3-0.3v-2.17c0-0.17-0.14-0.3-0.3-0.3H19.07z"/>
		</g>
		<g>
			<path class="st0" d="M16.43,34.05h-2.48c-0.48,0-0.87-0.39-0.87-0.87v-2.17c0-0.48,0.39-0.86,0.87-0.86h2.48
				c0.48,0,0.87,0.39,0.87,0.86v2.17C17.3,33.66,16.91,34.05,16.43,34.05z M13.95,30.72c-0.17,0-0.3,0.13-0.3,0.3v2.17
				c0,0.17,0.14,0.3,0.3,0.3h2.48c0.17,0,0.3-0.14,0.3-0.3v-2.17c0-0.16-0.14-0.3-0.3-0.3H13.95z"/>
		</g>
	</g>
	<g>
		<g>
			<path class="st0" d="M11.77,10.72c-0.3,0-0.59-0.12-0.8-0.33L9.84,9.27c-0.21-0.21-0.33-0.5-0.33-0.8c0-0.3,0.12-0.59,0.33-0.8
				c0.44-0.44,1.17-0.44,1.61,0l0.32,0.32l2.08-2.08c0.44-0.44,1.17-0.44,1.61,0c0.21,0.21,0.33,0.5,0.33,0.8
				c0,0.3-0.12,0.59-0.33,0.8l-2.88,2.88C12.36,10.6,12.07,10.72,11.77,10.72z M10.65,7.89c-0.15,0-0.29,0.05-0.4,0.17
				c-0.11,0.11-0.17,0.25-0.17,0.4c0,0.15,0.06,0.29,0.17,0.4l1.12,1.12c0.21,0.21,0.59,0.21,0.8,0l2.88-2.88
				c0.11-0.11,0.17-0.25,0.17-0.4c0-0.15-0.06-0.29-0.17-0.4c-0.22-0.22-0.58-0.22-0.8,0l-2.28,2.28c-0.11,0.11-0.29,0.11-0.4,0
				l-0.52-0.52C10.94,7.95,10.79,7.89,10.65,7.89z"/>
		</g>
	</g>
</g>
</svg>
