<?xml version="1.0" encoding="utf-8"?>
<!-- Generator: Adobe Illustrator 28.2.0, SVG Export Plug-In . SVG Version: 6.00 Build 0)  -->
<svg version="1.1" id="Layer_1" xmlns="http://www.w3.org/2000/svg" xmlns:xlink="http://www.w3.org/1999/xlink" x="0px" y="0px"
	 viewBox="0 0 29.74 36.53" style="enable-background:new 0 0 29.74 36.53;" xml:space="preserve">
<style type="text/css">
	.st0{fill:#FFFFFF;}
</style>
<g>
	<path class="st0" d="M26.11,14.28H11.06c-0.26,0-0.48,0.22-0.48,0.48s0.22,0.48,0.48,0.48h15.05c0.26,0,0.48-0.21,0.48-0.48
		S26.37,14.28,26.11,14.28z"/>
	<path class="st0" d="M3.63,15.24h3.88c0.26,0,0.48-0.21,0.48-0.48s-0.22-0.48-0.48-0.48H3.63c-0.26,0-0.48,0.22-0.48,0.48
		S3.37,15.24,3.63,15.24z"/>
	<path class="st0" d="M3.63,18.88h16.92c0.26,0,0.48-0.22,0.48-0.48s-0.22-0.48-0.48-0.48H3.63c-0.26,0-0.48,0.22-0.48,0.48
		S3.37,18.88,3.63,18.88z"/>
	<path class="st0" d="M11.41,22.04c0,0.26,0.22,0.48,0.48,0.48h10.4c0.26,0,0.48-0.22,0.48-0.48c0-0.26-0.22-0.48-0.48-0.48h-10.4
		C11.62,21.56,11.41,21.77,11.41,22.04z"/>
	<path class="st0" d="M3.63,22.52h4.87c0.26,0,0.48-0.22,0.48-0.48c0-0.26-0.22-0.48-0.48-0.48H3.63c-0.26,0-0.48,0.22-0.48,0.48
		C3.15,22.3,3.37,22.52,3.63,22.52z"/>
	<path class="st0" d="M22.29,25.2h-3.96c-0.26,0-0.48,0.22-0.48,0.48s0.22,0.48,0.48,0.48h3.96c0.26,0,0.48-0.21,0.48-0.48
		S22.55,25.2,22.29,25.2z"/>
	<path class="st0" d="M3.63,26.16h3.82h1.06h2.91h4.04c0.26,0,0.48-0.21,0.48-0.48s-0.22-0.48-0.48-0.48h-4.04H8.51H7.45H3.63
		c-0.26,0-0.48,0.22-0.48,0.48S3.37,26.16,3.63,26.16z"/>
	<path class="st0" d="M20.83,28.84h-8.94c-0.26,0-0.48,0.22-0.48,0.48s0.22,0.48,0.48,0.48h8.94c0.26,0,0.48-0.22,0.48-0.48
		S21.09,28.84,20.83,28.84z"/>
	<path class="st0" d="M3.63,29.8H8.9c0.26,0,0.48-0.22,0.48-0.48s-0.22-0.48-0.48-0.48H3.63c-0.26,0-0.48,0.22-0.48,0.48
		S3.37,29.8,3.63,29.8z"/>
	<path class="st0" d="M14.16,32.2H3.63c-0.26,0-0.48,0.21-0.48,0.48s0.22,0.48,0.48,0.48h10.52c0.26,0,0.48-0.21,0.48-0.48
		S14.42,32.2,14.16,32.2z"/>
	<path class="st0" d="M27.6,0H8.04C8.03,0,8.02,0.01,8.01,0.01C7.9,0.02,7.79,0.06,7.7,0.14L0.14,7.7C0.06,7.79,0.02,7.9,0.01,8.01
		C0.01,8.02,0,8.03,0,8.04v26.34c0,1.18,0.96,2.15,2.15,2.15H27.6c1.18,0,2.15-0.96,2.15-2.15l0-32.24C29.74,0.96,28.78,0,27.6,0z
		 M7.56,1.64v4.74c0,0.65-0.53,1.19-1.19,1.19H1.64L7.56,1.64z M28.78,34.38c0,0.65-0.53,1.19-1.19,1.19H2.15
		c-0.65,0-1.19-0.53-1.19-1.19V8.52h5.42c1.18,0,2.15-0.96,2.15-2.15V0.96H27.6c0.65,0,1.19,0.53,1.19,1.19L28.78,34.38z"/>
</g>
</svg>
